<svg id="Layer_1" data-name="Layer 1" xmlns="http://www.w3.org/2000/svg" viewBox="0 0 707.74 710.81"><defs><style>.cls-1{fill:#6cc7dd;}.cls-2{fill:#1b1e75;}.cls-3{fill:#e2e0b6;}.cls-4{fill:#347fb5;}.cls-5{fill:#ebdce1;}.cls-6{fill:#204963;}.cls-7{fill:#e77527;}</style></defs><title>yoyoomm</title><circle class="cls-1" cx="350.46" cy="353.83" r="343.15"/><path class="cls-2" d="M286.14,580.86c-4.14-.66-6.67-3.53-14.29-2.93-21.73,1.71-34.81-11.27-46.11-26.7-3.35-4.58-6-6-11.46-5.75-15.45.63-39.81-17-44.07-31.41-.45-1.52,1.52-3.77,2.37-5.68,10.19,7.3,19.88,17.34,33.18,16,7.34-.75,8.36,3,11.54,6.65,12.1,13.89,24,28.34,45.59,25.34l10.54.37,5.91,4.82c-.87,9.93,4.86,14.28,13.65,15.38,6,.75,12.08.6,18.13.86C300.08,581.86,291.76,581.76,286.14,580.86Z"/><path class="cls-3" d="M262.89,556.36c-21.55,3-33.49-11.45-45.59-25.34-3.18-3.66-4.2-7.4-11.54-6.65-13.3,1.36-23-8.68-33.18-16l-6.73-9.78c-9.55-22.07-8.32-44.08-1-66.62,5.1-15.78,15.07-29.8,16.7-46.77,9.57-18,20.46-35.45,28.2-54.21,4.58-11.06,15.83-17.56,17.58-29.8l-.42-.19c2.89-1.48,3.34-2.92-.05-4.32l1.12.06.11-1.11c2.19.5,3.06-.33,2.55-2.54,5.57,2.4,7.16-2,9.33-5.45l-.12.1,2.74-2.76-.07.11c5.74-1.84,9.89-5.94,14.12-9.92,11.58-5,23.06-10.11,36.23-5.73,6.87,2.28,13.63,4.91,14.79,12.8,1.1,7.45,5.54,4.72,9.5,4.36l30.48,2c5.07,5.6,12.94,8.93,14.34,17.54-5.19,3.81-10.92,7-14.1,13l0-.05c-3.41-.34-5.94,1.29-8,3.75-22.66,27.5-41.11,57.42-52.29,91.48-8.48,18.3-14.65,37.17-14.15,57.67-2.9,4.59-3.78,9.73-4.25,15Q266.11,521.72,262.89,556.36Zm-49.45-123.7c3.75-7.79,8.12-15.35,11.12-23.41,5.1-13.7,15.48-25,17.86-39.84,16.93-26.68,31.38-55.14,54.2-77.67-26.14,20.53-45.82,45.89-57,77.61-12.55,20.06-24.14,40.6-31.39,63.29-2.2,10.66-5.1,21.23-6.44,32-2.08,16.69-2.88,33.48,6.93,49A247.52,247.52,0,0,1,213.44,432.66Z"/><path class="cls-4" d="M279.33,561.55l-5.9-4.82c-4.69-28.37,1.41-56.4,2.67-84.59l13.89-50c13.68-29.63,24.51-60.71,47.16-85.59,4.29-4.71,10.32-9.74,10.73-17.44l0,.05c8.69.78,13.88-4.42,18.41-10.76l5.86.22L377,311.5c14.41,9.29,20.45,23.68,24.12,39.53q-.06,22.62-.1,45.25c-19.42-3.52-35.86,2.8-50.46,15.23-8.76,1.8-13.43,7.62-15.64,15.87C315.07,449,312.46,474.93,318.12,502c2.09,10,8.16,19.28,19,23.41,1.25,6.37-1.53,10.93-6.53,14.46q-11.17,7.86-22.37,15.67a1.82,1.82,0,0,0-1.74,1.27l-.66.6-2.6,1.87-5.67,1.38-2.71.9-7.47.13a5.08,5.08,0,0,0-5.77-.21A5.37,5.37,0,0,0,279.33,561.55Z"/><path class="cls-5" d="M327.34,272.87c1.66-17.56,9.16-33.24,17.19-48.36,7.5-14.12,16-28.07,26.17-40.32,20.62-24.79,43.08-47.33,76.07-56.36,23.6-6.46,43.62-2.94,48.72,28,.07,24.91-6.49,48.64-14,72-13,40.64-23.34,81.87-27.06,124.38-1.84,21.07-4.86,43.09,9.5,62,8.19,11.3,17.35,13.54,27.59,6.31,18.33-12.94,28.38-31.56,34.63-52.44,2-6.8,0-12.88-3.38-19.75A173.65,173.65,0,0,1,504.68,279c-1.07-21.64,11.18-37.71,26.74-50.25,15.93-12.84,36.32-4,47.68,18.88,3.86,22.53.29,44.21-7.44,65.42-11.76,14-16.06,33.69-33.23,43.66-.86.5-.45,3.19-.63,4.86-4.84,11.84-4.85,25.14-11.17,36.53-2.28,3.15-4.25,6.57-6.87,9.4-13.64,14.72-25,33.82-50.21,27.26l-13.18-10.44c-17.17-22.65-14.43-49-12.93-74.68,1.31-22.36,6.85-44.12,12.56-65.84,9.59-36.44,18.13-73.16,26.93-109.8,1.43-5.93,2.75-12.08-.11-18.09a21.58,21.58,0,0,0-10-19c-15.54-10.13-27.52,1.35-39.64,7.49-23.66,12-41.55,31.12-58.4,51.18-12.53,23.72-29.54,45.16-37.13,71.36C335.85,273.22,332.91,274.5,327.34,272.87ZM522.05,314c-.32,3.08,1.05,5.56,2.84,7.88.92,5.15,1.63,10.34,2.84,15.41.78,3.26,1.16,7.48,5.26,8.27,3.5.67,4.93-3,7-5.12,18.71-18.76,26-42.62,29.64-67.9.78-5.42,1.53-11.38-2.08-16.49a20.43,20.43,0,0,0-5.09-13.52c-2.92-9.34-9.65-10.17-17.49-7.37-16.1,5.74-24.14,18.15-27.47,34.23a16.54,16.54,0,0,0-.73,10.26c-1.42,7.39-.29,14.49,2.48,21.4a2.45,2.45,0,0,0,.41,2.4A14.6,14.6,0,0,0,522.05,314Z"/><path class="cls-4" d="M230.6,293.11c.51,2.21-.36,3-2.55,2.54l-4.48,4.85c-20,25.54-34.67,53.88-45,84.55-12.14,24.59-24.44,49.12-26,77.28-.21,3.93-.37,8-5,9.68-16.58-44.32-3.19-84.21,18.07-123,9-16.49,16.14-34,28.5-48.67,11.06-13.11,23.8-23,40.83-26.76,8.68-.18,8.28,5.56,7.51,11.53l.07-.11-2.74,2.76.12-.1C235.54,287.29,232.44,289.13,230.6,293.11Z"/><path class="cls-2" d="M279.33,561.55a5.21,5.21,0,0,1,2.29-.1l5.77.2,7.47-.13,2.71-.9,5.67-1.38,2.6-1.87.66-.6a6.18,6.18,0,0,0,1.74-1.27q11.19-7.83,22.37-15.67c5-3.53,7.78-8.09,6.53-14.46l.36-5c14.26-2.33,20.78-13.05,26.62-24.52l4.36-6.29q11.79-25.14,23.59-50.27l.81-6.17c4.69-8.93,8.55-18.07,6.95-28.54l1.14-8.26q0-22.63.1-45.25c5.25,2.21,6.24,7.19,7.19,11.86,6.15,30,7,59.31-3.9,89.13-4.91,13.48-8.22,28.09-15.45,40.24-8.29,13.93-17.25,27.19-24.72,41.78-4.22,8.27-13.32,16.89-20.48,25.13-6.34,7.31-13.88,13.67-24.67,13.36a7.25,7.25,0,0,0-5.39,5.16l-2.53.1c-6.05-.26-12.14-.11-18.13-.86C284.2,575.83,278.46,571.48,279.33,561.55Z"/><path class="cls-2" d="M472.86,136.84a21.58,21.58,0,0,1,10,19c-21.94-.4-40.47,9.15-57.69,21.06a164.35,164.35,0,0,0-50.61,56.91c-9.53,17.69-22.24,34.49-26.92,54.78l-30.48-2c8.27-1,12.71-4.79,10.22-13.75,5.57,1.63,8.51.35,10.35-6,7.59-26.2,24.6-47.64,37.13-71.36,9.74,2.69,15.33-3.65,20.93-9.74,5-5.41,8.54-11.9,14.66-16.49,15.12-11.32,32.69-17.29,50-23.78C465.46,143.62,470.24,141.92,472.86,136.84Z"/><path class="cls-2" d="M526.63,398.06c6.32-11.39,6.33-24.69,11.17-36.53,17.54-2.64,37.05-30.59,33.86-48.52,7.73-21.21,11.3-42.89,7.44-65.42,15.49,26.16,16.23,52.74,4.24,80.7-7.06,16.46-17.91,29.83-28.84,43.45-3,3.67-6.19,8.13-6.73,12.53-2.27,18.61-13.72,32.79-22.32,48.25-8.51,15.28-26.1,25.72-42.12,22.06-17.24-3.94-22.18-16.51-27-30.3l13.18,10.44c24.31,12.56,24.83,13.09,40-1.83,7.24-7.15,12.23-16.63,18-25.24C529.57,404.53,529.31,401,526.63,398.06Z"/><path class="cls-2" d="M464,414.24c-14.36-18.94-11.34-41-9.5-62,3.72-42.51,14.08-83.74,27.06-124.38,7.47-23.38,14-47.11,14-72,4,.19,6.3,1.69,6.75,6.26,1.27,13.13,2.31,26.16-.1,39.32C493.08,250.8,478,298.68,465.47,347.2c-2.9,11.24-1.05,22.73-1.37,34.1C463.8,392.27,464,403.26,464,414.24Z"/><path class="cls-2" d="M147.57,472c4.67-1.67,4.83-5.75,5-9.68,1.54-28.16,13.84-52.69,26-77.28l2.92.17c-1.63,17-11.6,31-16.7,46.77-7.28,22.54-8.51,44.55,1,66.62C152,495,153.17,481.21,147.57,472Z"/><path class="cls-2" d="M242.48,285.11c.77-6,1.17-11.71-7.51-11.53,7.51-3.51,14.83-4.41,21.63,1.61C252.37,279.17,248.22,283.27,242.48,285.11Z"/><path class="cls-2" d="M366.25,308.43c-4.53,6.34-9.72,11.54-18.41,10.76,3.18-6,8.91-9.22,14.1-13Z"/><path class="cls-2" d="M313.65,577.69a7.25,7.25,0,0,1,5.39-5.16A7.79,7.79,0,0,1,313.65,577.69Z"/><path class="cls-2" d="M377,311.5l-4.84-2.85Z"/><path class="cls-2" d="M276.1,472.14c-1.26,28.19-7.36,56.22-2.67,84.59l-10.54-.37q3.18-34.65,6.33-69.29c.47-5.3,1.35-10.44,4.25-15C274.35,472.05,275.22,472.09,276.1,472.14Z"/><path class="cls-2" d="M347.88,319.14c-.41,7.7-6.44,12.73-10.73,17.44-22.65,24.88-33.48,56-47.16,85.59l-2.37-7.8c11.18-34.06,29.63-64,52.29-91.48C341.94,320.43,344.47,318.8,347.88,319.14Z"/><path class="cls-2" d="M239.6,369.35c11.2-31.72,30.88-57.08,57-77.61-22.82,22.53-37.27,51-54.2,77.66Z"/><path class="cls-2" d="M181.51,385.22l-2.92-.17c10.31-30.67,25-59,45-84.54l3.72.7c-1.75,12.24-13,18.74-17.58,29.8C202,349.77,191.08,367.22,181.51,385.22Z"/><path class="cls-2" d="M213.44,432.66a247.52,247.52,0,0,0-4.74,81c-9.81-15.51-9-32.3-6.93-49,1.34-10.76,4.24-21.33,6.44-32Z"/><path class="cls-2" d="M213.44,432.66h-5.23c7.25-22.7,18.84-43.24,31.39-63.3l2.82,0c-2.38,14.87-12.76,26.15-17.86,39.85C221.56,417.31,217.19,424.87,213.44,432.66Z"/><path class="cls-2" d="M287.62,414.37l2.37,7.8-13.89,50c-.88-.05-1.75-.09-2.63-.1C273,451.54,279.14,432.67,287.62,414.37Z"/><path class="cls-2" d="M230.6,293.11c1.84-4,4.94-5.82,9.33-5.45C237.76,291.09,236.17,295.51,230.6,293.11Z"/><path class="cls-2" d="M227.29,301.21l-3.72-.7,4.48-4.86-.11,1.11-1.12-.06c0,1.44,0,2.88.05,4.32Z"/><path class="cls-2" d="M239.81,287.76l2.74-2.76Z"/><path class="cls-2" d="M226.87,301c0-1.44,0-2.88-.05-4.32C230.21,298.1,229.76,299.54,226.87,301Z"/><path class="cls-2" d="M337.5,520.33l-.36,5c-10.86-4.13-16.93-13.4-19-23.41-5.66-27-3.05-52.93,16.75-74.58l2.87,0c-.08,6.5-4.13,11.33-7.16,16.52C319,463.68,318.5,508.32,337.5,520.33Z"/><path class="cls-2" d="M401,396.28l-1.14,8.26c-11.42-4.74-22.11-3.14-32.33,3.5-5.14,3.34-10.58,6.11-16.81,6.88l-.18-3.41C365.11,399.08,381.55,392.76,401,396.28Z"/><path class="cls-2" d="M350.51,411.51l.18,3.4-12.95,12.51-2.87,0C337.08,419.13,341.75,413.31,350.51,411.51Z"/><path class="cls-2" d="M287.39,561.65l-5.77-.2A5.06,5.06,0,0,1,287.39,561.65Z"/><path class="cls-2" d="M308.24,555.5a6.18,6.18,0,0,1-1.74,1.27A1.82,1.82,0,0,1,308.24,555.5Z"/><path class="cls-2" d="M305.84,557.37l-2.6,1.87Z"/><path class="cls-2" d="M297.57,560.62l-2.71.9Z"/><path class="cls-2" d="M472.86,136.84c-2.62,5.08-7.4,6.78-12.43,8.66-17.33,6.49-34.9,12.46-50,23.78-6.12,4.59-9.69,11.08-14.66,16.49-5.6,6.09-11.19,12.43-20.93,9.74,16.85-20.06,34.74-39.2,58.4-51.18C445.34,138.19,457.32,126.71,472.86,136.84Z"/><path class="cls-2" d="M567.56,256c-27.26.09-39.9,12.83-40.32,40-.13,8.62,2,17.55-2.35,25.82-1.79-2.32-3.16-4.8-2.84-7.88,1.62-4.06.13-7.42-2.38-10.55a2.43,2.43,0,0,1-.41-2.39c.14-7.25,1.35-14.62-2.48-21.41a16.47,16.47,0,0,1,.74-10.26c3.33-1.1,6.37-2.57,8.43-5.64,8.7-13,21.19-19.57,36.52-21.22A20.43,20.43,0,0,1,567.56,256Z"/><path class="cls-2" d="M526.63,398.06c2.68,3,2.94,6.47.86,9.59-5.74,8.61-10.73,18.09-18,25.24-15.14,14.92-15.66,14.39-40,1.83,25.22,6.56,36.57-12.54,50.21-27.26C522.38,404.63,524.35,401.21,526.63,398.06Z"/><path class="cls-2" d="M562.47,242.52c-15.33,1.65-27.82,8.21-36.52,21.22-2.06,3.07-5.1,4.54-8.43,5.64,3.32-16.08,11.36-28.49,27.46-34.23C552.82,232.35,559.55,233.18,562.47,242.52Z"/><path class="cls-2" d="M571.66,313c3.19,17.93-16.32,45.88-33.86,48.52.18-1.67-.23-4.36.63-4.86C555.6,346.7,559.9,327,571.66,313Z"/><path class="cls-2" d="M516.78,279.64c3.83,6.79,2.62,14.16,2.48,21.41C516.49,294.13,515.36,287,516.78,279.64Z"/><path class="cls-2" d="M519.67,303.44c2.51,3.13,4,6.49,2.38,10.55A14.6,14.6,0,0,1,519.67,303.44Z"/><path class="cls-6" d="M337.74,427.42l12.95-12.51c6.23-.76,11.67-3.53,16.81-6.87,10.22-6.64,20.91-8.24,32.33-3.5,1.6,10.47-2.26,19.61-6.95,28.54-12.16-1.33-23.57-.93-29.18,12.74l.08-.05c-15,3-14.23,16.37-15.29,26.52-1.08,10.43,2.58,20.91,15.63,23.52-5.84,11.47-12.36,22.19-26.62,24.52-19-12-18.5-56.65-6.92-76.39C333.61,438.75,337.66,433.92,337.74,427.42Z"/><path class="cls-7" d="M392.07,439.25q-11.79,25.14-23.59,50.27c-7.52,2-10.81-1.37-13.07-8.46-4.37-13.72,1.92-24.41,8.37-35.29l-.08.05C372.89,442.49,381,434.5,392.07,439.25Z"/><path class="cls-2" d="M363.78,445.77c-6.45,10.88-12.74,21.57-8.37,35.29,2.26,7.09,5.55,10.5,13.07,8.46l-4.36,6.29c-13.05-2.61-16.71-13.09-15.63-23.52C349.55,462.14,348.73,448.76,363.78,445.77Z"/><path class="cls-2" d="M392.07,439.25c-11.06-4.75-19.18,3.24-28.37,6.57,5.61-13.67,17-14.07,29.18-12.74Z"/></svg>